HIERARCHY
ROOT Hips
{
	OFFSET 0.000000 0.000000 0.000000
	CHANNELS 6 Xposition Yposition Zposition Xrotation Yrotation Zrotation
	JOINT Spine
	{
		OFFSET 0.000000 0.986310 -0.016150
		CHANNELS 3 Xrotation Yrotation Zrotation
		JOINT Spine1
		{
			OFFSET -0.000000 1.150695 -0.018842
			CHANNELS 3 Xrotation Yrotation Zrotation
			JOINT Spine2
			{
				OFFSET 0.000000 1.315081 -0.021534
				CHANNELS 3 Xrotation Yrotation Zrotation
				JOINT Neck
				{
					OFFSET -0.000000 1.479465 -0.024225
					CHANNELS 3 Xrotation Yrotation Zrotation
					JOINT Head
					{
						OFFSET 0.000000 1.037368 0.160286
						CHANNELS 3 Xrotation Yrotation Zrotation
						End Site
						{
							OFFSET 0.000000 2.051621 0.000000
						}
					}
				}
				JOINT LeftShoulder
				{
					OFFSET 0.561780 1.266813 -0.027281
					CHANNELS 3 Xrotation Yrotation Zrotation
					JOINT LeftArm
					{
						OFFSET 1.117481 -0.429783 -0.006111
						CHANNELS 3 Xrotation Yrotation Zrotation
						JOINT LeftForeArm
						{
							OFFSET 1.859138 -1.977188 0.171808
							CHANNELS 3 Xrotation Yrotation Zrotation
							JOINT LeftHand
							{
								OFFSET 1.431012 -1.475394 1.718321
								CHANNELS 3 Xrotation Yrotation Zrotation
								JOINT LeftHandThumb1
								{
									OFFSET -0.121929 -0.123251 0.393069
									CHANNELS 3 Xrotation Yrotation Zrotation
									JOINT LeftHandThumb2
									{
										OFFSET -0.097543 -0.098602 0.314456
										CHANNELS 3 Xrotation Yrotation Zrotation
										JOINT LeftHandThumb3
										{
											OFFSET -0.120019 -0.140000 0.294176
											CHANNELS 3 Xrotation Yrotation Zrotation
											End Site
											{
												OFFSET -0.106341 -0.127206 0.253733
											}
										}
									}
								}
								JOINT LeftHandIndex1
								{
									OFFSET 0.211737 -0.431800 0.899969
									CHANNELS 3 Xrotation Yrotation Zrotation
									JOINT LeftHandIndex2
									{
										OFFSET 0.065152 -0.172362 0.259049
										CHANNELS 3 Xrotation Yrotation Zrotation
										JOINT LeftHandIndex3
										{
											OFFSET -0.003030 -0.196403 0.228173
											CHANNELS 3 Xrotation Yrotation Zrotation
											End Site
											{
												OFFSET 0.021780 -0.159725 0.206156
											}
										}
									}
								}
								JOINT LeftHandMiddle1
								{
									OFFSET 0.357300 -0.583922 0.760501
									CHANNELS 3 Xrotation Yrotation Zrotation
									JOINT LeftHandMiddle2
									{
										OFFSET 0.109606 -0.225692 0.224713
										CHANNELS 3 Xrotation Yrotation Zrotation
										JOINT LeftHandMiddle3
										{
											OFFSET 0.046638 -0.245408 0.199491
											CHANNELS 3 Xrotation Yrotation Zrotation
											End Site
											{
												OFFSET 0.085110 -0.197404 0.190088
											}
										}
									}
								}
								JOINT LeftHandRing1
								{
									OFFSET 0.451267 -0.672547 0.593177
									CHANNELS 3 Xrotation Yrotation Zrotation
									JOINT LeftHandRing2
									{
										OFFSET 0.132076 -0.239178 0.169451
										CHANNELS 3 Xrotation Yrotation Zrotation
										JOINT LeftHandRing3
										{
											OFFSET 0.070188 -0.249962 0.144053
											CHANNELS 3 Xrotation Yrotation Zrotation
											End Site
											{
												OFFSET 0.067464 -0.216392 0.128450
											}
										}
									}
								}
								JOINT LeftHandPinky1
								{
									OFFSET 0.478657 -0.709149 0.394794
									CHANNELS 3 Xrotation Yrotation Zrotation
									JOINT LeftHandPinky2
									{
										OFFSET 0.094391 -0.196290 0.087879
										CHANNELS 3 Xrotation Yrotation Zrotation
										JOINT LeftHandPinky3
										{
											OFFSET 0.040896 -0.203274 0.069002
											CHANNELS 3 Xrotation Yrotation Zrotation
											End Site
											{
												OFFSET 0.070882 -0.166176 0.070410
											}
										}
									}
								}
							}
						}
					}
				}
				JOINT RightShoulder
				{
					OFFSET -0.561780 1.266813 -0.021170
					CHANNELS 3 Xrotation Yrotation Zrotation
					JOINT RightArm
					{
						OFFSET -1.117470 -0.429797 0.007038
						CHANNELS 3 Xrotation Yrotation Zrotation
						JOINT RightForeArm
						{
							OFFSET -1.859002 -1.977210 0.138561
							CHANNELS 3 Xrotation Yrotation Zrotation
							JOINT RightHand
							{
								OFFSET -1.429594 -1.475366 1.709922
								CHANNELS 3 Xrotation Yrotation Zrotation
								JOINT RightHandThumb1
								{
									OFFSET 0.098710 -0.123752 0.408432
									CHANNELS 3 Xrotation Yrotation Zrotation
									JOINT RightHandThumb2
									{
										OFFSET 0.078969 -0.099002 0.326746
										CHANNELS 3 Xrotation Yrotation Zrotation
										JOINT RightHandThumb3
										{
											OFFSET 0.124796 -0.141629 0.294294
											CHANNELS 3 Xrotation Yrotation Zrotation
											End Site
											{
												OFFSET 0.066439 -0.103891 0.260804
											}
										}
									}
								}
								JOINT RightHandIndex1
								{
									OFFSET -0.241938 -0.449457 0.965313
									CHANNELS 3 Xrotation Yrotation Zrotation
									JOINT RightHandIndex2
									{
										OFFSET -0.070231 -0.166617 0.244189
										CHANNELS 3 Xrotation Yrotation Zrotation
										JOINT RightHandIndex3
										{
											OFFSET -0.000734 -0.193940 0.215897
											CHANNELS 3 Xrotation Yrotation Zrotation
											End Site
											{
												OFFSET -0.026265 -0.152434 0.190983
											}
										}
									}
								}
								JOINT RightHandMiddle1
								{
									OFFSET -0.368522 -0.600552 0.768637
									CHANNELS 3 Xrotation Yrotation Zrotation
									JOINT RightHandMiddle2
									{
										OFFSET -0.132454 -0.189576 0.219769
										CHANNELS 3 Xrotation Yrotation Zrotation
										JOINT RightHandMiddle3
										{
											OFFSET -0.051524 -0.257631 0.217275
											CHANNELS 3 Xrotation Yrotation Zrotation
											End Site
											{
												OFFSET -0.070792 -0.212112 0.196414
											}
										}
									}
								}
								JOINT RightHandRing1
								{
									OFFSET -0.497965 -0.676556 0.621356
									CHANNELS 3 Xrotation Yrotation Zrotation
									JOINT RightHandRing2
									{
										OFFSET -0.125901 -0.228612 0.167391
										CHANNELS 3 Xrotation Yrotation Zrotation
										JOINT RightHandRing3
										{
											OFFSET -0.063348 -0.252055 0.147087
											CHANNELS 3 Xrotation Yrotation Zrotation
											End Site
											{
												OFFSET -0.087749 -0.196266 0.133529
											}
										}
									}
								}
								JOINT RightHandPinky1
								{
									OFFSET -0.514521 -0.723849 0.434918
									CHANNELS 3 Xrotation Yrotation Zrotation
									JOINT RightHandPinky2
									{
										OFFSET -0.100691 -0.192082 0.078412
										CHANNELS 3 Xrotation Yrotation Zrotation
										JOINT RightHandPinky3
										{
											OFFSET -0.042624 -0.198540 0.059026
											CHANNELS 3 Xrotation Yrotation Zrotation
											End Site
											{
												OFFSET -0.063073 -0.163159 0.058483
											}
										}
									}
								}
							}
						}
					}
				}
			}
		}
	}
	JOINT LeftUpLeg
	{
		OFFSET 1.041451 -0.547760 0.049994
		CHANNELS 3 Xrotation Yrotation Zrotation
		JOINT LeftLeg
		{
			OFFSET 0.490304 -4.757185 -0.035210
			CHANNELS 3 Xrotation Yrotation Zrotation
			JOINT LeftFoot
			{
				OFFSET 0.465834 -4.389879 -0.096499
				CHANNELS 3 Xrotation Yrotation Zrotation
				JOINT LeftToeBase
				{
					OFFSET -0.192848 -0.784764 1.329755
					CHANNELS 3 Xrotation Yrotation Zrotation
					End Site
					{
						OFFSET -0.069065 -0.017159 0.628242
					}
				}
			}
		}
	}
	JOINT RightUpLeg
	{
		OFFSET -1.041451 -0.547760 0.051603
		CHANNELS 3 Xrotation Yrotation Zrotation
		JOINT RightLeg
		{
			OFFSET -0.490304 -4.757185 -0.023390
			CHANNELS 3 Xrotation Yrotation Zrotation
			JOINT RightFoot
			{
				OFFSET -0.465834 -4.389880 -0.086918
				CHANNELS 3 Xrotation Yrotation Zrotation
				JOINT RightToeBase
				{
					OFFSET 0.192848 -0.784764 1.307838
					CHANNELS 3 Xrotation Yrotation Zrotation
					End Site
					{
						OFFSET 0.069065 -0.017160 0.627341
					}
				}
			}
		}
	}
}
MOTION
Frames: 4
Frame Time: 0.041667
0.000001 -0.000000 0.000000 -0.000000 -0.000002 -0.000000 0.367971 0.536549 -1.386034 0.525100 0.240464 -1.010024 -0.009655 0.145380 0.003851 6.565072 -10.517421 6.318571 -0.000001 0.000000 -0.000000 9.032088 -4.760681 7.269141 6.820323 -35.229470 -28.194548 20.496496 5.370205 -10.492850 -13.441181 0.842056 -3.728143 0.000027 0.000008 0.000002 0.000005 -0.000009 -0.000007 -0.000005 0.000006 -0.000003 -0.000008 -0.000009 -0.000006 0.000014 -0.000015 -0.000019 -0.000005 0.000009 -0.000002 0.000003 -0.000002 0.000003 0.000005 -0.000009 -0.000017 0.000003 0.000012 0.000010 0.000011 0.000014 0.000003 0.000015 -0.000001 -0.000017 0.000002 0.000000 -0.000004 0.000001 -0.000003 -0.000005 -0.000000 -0.000006 -0.000016 -0.000001 0.000006 0.000018 9.246770 10.600174 3.656915 18.352636 44.549499 10.339411 17.979283 -3.660671 9.332385 -14.036240 -18.160281 19.756170 0.000033 0.000002 0.000004 0.000018 0.000016 0.000003 -0.000009 -0.000012 -0.000001 -0.000019 0.000014 0.000006 0.000007 0.000004 0.000007 -0.000003 -0.000002 -0.000005 -0.000001 0.000004 0.000008 -0.000002 0.000007 0.000004 -0.000006 -0.000001 -0.000003 0.000009 -0.000004 0.000005 0.000009 0.000010 0.000014 -0.000003 -0.000004 -0.000012 -0.000014 0.000009 0.000016 0.000006 -0.000001 0.000015 -0.000015 0.000003 -0.000008 8.821544 1.415419 -1.387056 -1.715690 0.009381 -0.341321 -26.293356 -3.665996 -5.624274 -0.558795 -0.025117 0.034757 0.778386 -15.839926 0.620846 10.173186 -0.233305 0.219964 -25.238259 -1.799598 4.434475 -0.218069 0.008748 -0.011919 
0.000541 -0.001998 0.010147 -0.074214 -0.012674 0.003708 0.437218 0.518434 -1.372014 0.577474 0.234656 -1.017440 0.008779 0.150109 0.003026 6.735173 -10.619335 6.390559 0.000000 0.000001 0.000000 9.014800 -4.752328 7.166405 6.939684 -35.084482 -28.036067 20.419581 5.345901 -10.456401 -13.627847 0.868550 -3.617348 0.000029 0.000003 0.000008 0.000006 -0.000009 -0.000004 -0.000007 0.000003 0.000003 -0.000017 -0.000014 -0.000015 0.000018 -0.000013 -0.000021 -0.000004 0.000012 -0.000002 0.000002 -0.000006 -0.000000 0.000007 -0.000012 -0.000024 0.000002 0.000010 0.000011 0.000009 0.000015 0.000002 0.000009 -0.000006 -0.000013 0.000001 -0.000002 0.000002 0.000005 -0.000003 -0.000003 0.000001 -0.000008 -0.000018 -0.000003 0.000008 0.000015 9.239985 10.605143 3.729530 18.514840 44.545039 10.358856 18.017855 -3.676951 9.337245 -13.932950 -18.293986 19.808742 0.000032 0.000006 -0.000000 0.000016 0.000012 0.000003 -0.000008 -0.000009 -0.000001 -0.000023 0.000012 0.000005 0.000015 0.000013 0.000012 0.000001 -0.000003 -0.000009 -0.000006 -0.000005 0.000005 -0.000004 0.000004 0.000012 -0.000002 -0.000008 -0.000011 0.000016 -0.000011 0.000003 0.000011 0.000017 0.000011 0.000001 -0.000004 -0.000010 -0.000013 0.000009 0.000015 -0.000001 0.000004 0.000010 -0.000009 -0.000003 -0.000010 8.720332 1.211955 -1.470572 -1.752129 0.004563 -0.334386 -26.342438 -3.618226 -5.619582 -0.565142 -0.023946 0.031167 0.935820 -15.875390 0.599862 10.100289 -0.219905 0.223733 -25.232609 -1.893682 4.428161 -0.100763 0.005435 -0.008278 
0.000160 -0.012129 0.010571 -0.259768 -0.092499 -0.014812 0.714219 0.479208 -1.365632 0.641099 0.221158 -0.976176 0.055759 0.147058 0.013939 7.395221 -10.714015 6.421051 -0.000001 0.000000 0.000000 8.995712 -4.713975 7.104454 7.053486 -34.779125 -27.820254 20.256652 5.273574 -10.403142 -14.109113 0.894847 -3.290165 0.000032 0.000006 0.000006 0.000003 -0.000006 -0.000013 -0.000003 0.000005 0.000002 -0.000020 -0.000007 -0.000010 0.000020 -0.000009 -0.000015 -0.000005 0.000005 -0.000000 0.000002 0.000003 -0.000000 0.000009 -0.000010 -0.000015 0.000004 0.000014 0.000013 0.000009 0.000019 0.000007 0.000012 -0.000004 -0.000016 -0.000003 -0.000003 -0.000000 0.000002 0.000007 -0.000005 0.000003 -0.000010 -0.000023 -0.000006 0.000009 0.000018 9.239338 10.579400 3.757070 18.759120 44.485773 10.432027 18.012653 -3.637906 9.369856 -13.860845 -18.573677 19.897741 0.000026 -0.000001 -0.000002 0.000018 0.000017 0.000002 -0.000005 -0.000008 -0.000006 -0.000020 0.000013 -0.000000 0.000004 0.000014 0.000009 0.000002 0.000000 -0.000006 -0.000005 -0.000003 0.000011 0.000000 0.000005 0.000000 -0.000000 -0.000007 -0.000006 0.000015 -0.000006 -0.000002 0.000006 0.000014 0.000008 0.000000 -0.000003 -0.000008 -0.000013 0.000013 0.000012 0.000005 0.000004 0.000012 -0.000007 0.000001 -0.000005 8.485797 0.778848 -1.332895 -1.705750 0.028971 -0.363331 -26.495077 -3.708233 -5.596293 -0.408450 -0.023249 0.020410 1.096790 -16.050909 0.565535 9.795952 -0.234610 0.208662 -25.360416 -2.130630 4.400782 -0.133990 0.000250 -0.013931 
-0.000016 -0.022610 0.004910 -0.445474 -0.176073 -0.044697 0.951079 0.434432 -1.359221 0.749847 0.206234 -0.916520 0.106977 0.132931 0.031085 8.246775 -10.753642 6.368405 -0.000000 0.000001 -0.000000 8.982201 -4.676076 7.063523 7.169685 -34.458827 -27.597460 20.124215 5.229330 -10.348469 -14.610167 0.833636 -2.947994 0.000032 0.000006 0.000009 0.000006 -0.000008 -0.000000 -0.000008 0.000007 0.000003 -0.000008 -0.000011 -0.000004 0.000017 -0.000018 -0.000015 -0.000012 0.000009 -0.000003 0.000006 -0.000001 0.000006 -0.000000 -0.000012 -0.000024 -0.000002 0.000009 0.000012 0.000022 0.000015 0.000006 0.000013 -0.000004 -0.000016 -0.000003 -0.000001 -0.000002 0.000005 0.000003 0.000001 -0.000002 -0.000014 -0.000017 -0.000001 0.000004 0.000015 9.238081 10.550053 3.772121 19.006350 44.409945 10.506041 18.040237 -3.625665 9.415645 -13.883751 -18.822217 19.952371 0.000038 0.000006 -0.000010 0.000022 0.000025 -0.000000 -0.000013 -0.000003 -0.000001 -0.000021 0.000010 0.000001 0.000009 0.000003 0.000010 -0.000005 -0.000003 -0.000004 -0.000004 -0.000003 0.000003 -0.000005 0.000001 -0.000000 -0.000002 -0.000009 -0.000006 0.000015 -0.000009 -0.000002 0.000003 0.000013 0.000009 -0.000006 -0.000001 -0.000010 -0.000015 0.000013 0.000012 0.000006 0.000002 0.000016 -0.000008 0.000003 0.000001 8.225569 0.337304 -1.199804 -1.634213 0.007616 -0.375101 -26.622742 -3.748065 -5.597346 -0.195962 -0.010600 0.014673 1.275207 -16.268479 0.560439 9.489259 -0.238544 0.192181 -25.475243 -2.413575 4.359894 -0.071341 0.000707 -0.007178 
